<svg width="24" height="24" viewBox="0 0 24 24" fill="none" xmlns="http://www.w3.org/2000/svg">
<g filter="url(#filter0_i_101_218)">
<path d="M20.83 8.00999L14.28 2.76999C13 1.74999 11 1.73999 9.73 2.75999L3.18 8.00999C2.24 8.75999 1.67 10.26 1.87 11.44L3.13 18.98C3.42 20.67 4.99 22 6.7 22H17.3C18.99 22 20.59 20.64 20.88 18.97L22.14 11.43C22.32 10.26 21.75 8.75999 20.83 8.00999ZM12.75 18C12.75 18.41 12.41 18.75 12 18.75C11.59 18.75 11.25 18.41 11.25 18V15C11.25 14.59 11.59 14.25 12 14.25C12.41 14.25 12.75 14.59 12.75 15V18Z" fill="#5F33E1"/>
</g>
<defs>
<filter id="filter0_i_101_218" x="0" y="0" width="24" height="30" filterUnits="userSpaceOnUse" color-interpolation-filters="sRGB">
<feFlood flood-opacity="0" result="BackgroundImageFix"/>
<feBlend mode="normal" in="SourceGraphic" in2="BackgroundImageFix" result="shape"/>
<feColorMatrix in="SourceAlpha" type="matrix" values="0 0 0 0 0 0 0 0 0 0 0 0 0 0 0 0 0 0 127 0" result="hardAlpha"/>
<feOffset dy="6"/>
<feGaussianBlur stdDeviation="3"/>
<feComposite in2="hardAlpha" operator="arithmetic" k2="-1" k3="1"/>
<feColorMatrix type="matrix" values="0 0 0 0 0.372549 0 0 0 0 0.2 0 0 0 0 0.882353 0 0 0 0.35 0"/>
<feBlend mode="normal" in2="shape" result="effect1_innerShadow_101_218"/>
</filter>
</defs>
</svg>
